<?xml version="1.0" ?><!DOCTYPE svg  PUBLIC '-//W3C//DTD SVG 1.1//EN'  'http://www.w3.org/Graphics/SVG/1.1/DTD/svg11.dtd'><svg enable-background="new 0 0 373.434 512" height="512px" id="Layer_1" version="1.1" viewBox="0 0 373.434 512" width="373.434px" xml:space="preserve" xmlns="http://www.w3.org/2000/svg" xmlns:xlink="http://www.w3.org/1999/xlink"><g id="meanicons_x5F_39"><g><path d="M196.179,415.595c-1.16,0-2.117,0.933-2.117,2.081v19.271c0,1.149,0.957,2.123,2.117,2.123    c1.169,0,2.104-0.974,2.104-2.123v-19.271C198.283,416.527,197.348,415.595,196.179,415.595z"/><path d="M151.271,258.016c0.593,1.021,1.863,1.355,2.885,0.811c0.998-0.594,1.361-1.912,0.791-2.934l-9.611-16.637    c-0.599-1.021-1.896-1.4-2.915-0.763c-0.998,0.545-1.361,1.864-0.76,2.84L151.271,258.016z"/><path d="M241.056,405.109c-0.553-1.017-1.863-1.356-2.862-0.767c-1,0.554-1.354,1.871-0.787,2.893l9.612,16.641    c0.619,1.016,1.896,1.356,2.91,0.764c0.994-0.553,1.354-1.868,0.766-2.887L241.056,405.109z"/><path d="M105.978,277.033c-1.021-0.547-2.315-0.211-2.905,0.768c-0.581,1.018-0.22,2.333,0.779,2.887l16.69,9.638    c0.987,0.595,2.285,0.252,2.857-0.765c0.566-1.02,0.231-2.338-0.763-2.932L105.978,277.033z"/><path d="M271.833,372.805c-1.023-0.596-2.295-0.255-2.906,0.766c-0.58,1.017-0.219,2.289,0.802,2.885l16.643,9.637    c1.021,0.555,2.317,0.218,2.912-0.762c0.571-1.022,0.23-2.338-0.785-2.887L271.833,372.805z"/><path d="M112.153,331.543c0-1.148-0.957-2.125-2.102-2.125H90.799c-1.166,0-2.122,0.977-2.122,2.125    c0,1.19,0.956,2.123,2.122,2.123h19.252C111.196,333.666,112.153,332.734,112.153,331.543z"/><path d="M280.198,331.543c0,1.19,0.955,2.123,2.135,2.123h19.213c1.168,0,2.124-0.933,2.124-2.123    c0-1.148-0.956-2.125-2.124-2.125h-19.213C281.153,329.418,280.198,330.395,280.198,331.543z"/><path d="M120.542,372.805l-16.69,9.639c-0.999,0.549-1.36,1.863-0.779,2.888c0.59,0.979,1.885,1.313,2.905,0.761l16.66-9.636    c0.994-0.597,1.329-1.869,0.764-2.885C122.827,372.549,121.53,372.209,120.542,372.805z"/><path d="M268.927,289.561c0.61,1.016,1.883,1.357,2.905,0.764l16.664-9.638c1.018-0.554,1.357-1.868,0.785-2.886    c-0.594-0.979-1.891-1.314-2.912-0.769l-16.642,9.597C268.708,287.223,268.347,288.541,268.927,289.561z"/><path d="M151.271,405.109l-9.61,16.644c-0.603,1.019-0.238,2.334,0.76,2.887c0.994,0.594,2.316,0.252,2.915-0.764l9.611-16.641    c0.57-1.021,0.207-2.339-0.791-2.893C153.134,403.752,151.863,404.094,151.271,405.109z"/><path d="M247.019,239.256l-9.612,16.637c-0.566,1.021-0.213,2.34,0.787,2.934c0.999,0.547,2.311,0.211,2.862-0.811l9.639-16.682    c0.59-0.977,0.229-2.295-0.766-2.84C248.914,237.855,247.638,238.236,247.019,239.256z"/><path d="M204.546,315.198v-77.09c0-4.205-2.713-7.556-6.264-8.529v-3.396c0-1.19-0.936-2.127-2.104-2.127    c-1.16,0-2.117,0.937-2.117,2.127v3.479c-3.313,1.147-5.771,4.418-5.771,8.446v69.834l-22.422-31.412    c-1.995-2.809-6.571-2.934-10.224-0.342c-3.68,2.631-4.987,7.006-2.997,9.806l27.594,38.586    c-1.715,3.062-2.715,6.498-2.689,10.231c0.042,11.336,9.277,20.547,20.628,20.502c11.374-0.041,20.548-9.297,20.508-20.627    C218.688,325.559,212.739,317.871,204.546,315.198z M198.142,340.756c-3.315,0-5.987-2.717-6.012-6.029    c0-3.268,2.671-5.941,5.966-5.941c3.311-0.041,6.007,2.635,6.007,5.941C204.12,338.039,201.444,340.715,198.142,340.756z"/><path d="M318.758,463.651c-0.612,0-1.187,0.125-1.798,0.167c34.87-32.09,56.817-77.978,56.817-129.092    c0-47.334-18.807-90.248-49.283-121.836c7.953,3.949,15.924,7.854,23.73,11.381l2.67-4.672    c13.034-23.097,4.901-52.341-18.15-65.418l-38.18-21.606c-23.097-13.072-52.377-4.965-65.457,18.125l-2.548,4.543    c4.438,3.101,9.253,6.117,13.856,9.168c-13.581-3.353-27.702-5.351-42.304-5.351c-14.922,0-29.354,2.082-43.193,5.563    c4.583-3.014,9.342-6.028,13.756-9.082l-2.63-4.672c-13.37-23.604-43.388-31.967-67.027-18.596l-39.141,22.16    c-23.649,13.418-31.952,43.426-18.581,67.027l2.723,4.801c9.104-4.072,18.339-8.615,27.611-13.248    c-30.393,31.588-49.18,74.418-49.18,121.711c0,51.155,21.995,97.045,56.885,129.139c-0.779-0.089-1.505-0.214-2.299-0.214    c-13.341,0-24.164,10.823-24.164,24.155c0,13.369,10.823,24.192,24.164,24.192c13.355,0,24.208-10.824,24.208-24.192    c0-2.592-0.554-5.01-1.297-7.388c28.045,18.929,61.811,29.97,98.165,29.97c36.148,0,69.729-10.955,97.658-29.631    c-0.696,2.252-1.207,4.586-1.207,7.049c0,13.369,10.846,24.192,24.191,24.192c13.354,0,24.184-10.824,24.184-24.192    C342.94,474.475,332.112,463.651,318.758,463.651z M198.431,452.063c-64.799,0.167-117.463-52.217-117.649-117.039    c-0.172-64.777,52.217-117.459,117.04-117.634c64.805-0.169,117.468,52.218,117.65,117.036    C315.624,399.211,263.239,451.895,198.431,452.063z"/><path d="M72.483,112.619H32.601v-0.336c4.755-4.584,9.001-9.848,13.589-15.111l24.937-31.418V50.131h-67.9V70.68h36.318v0.344    c-4.568,4.92-8.324,9.168-13.06,14.603L0.344,118.397v14.771h72.139V112.619z"/><polygon points="346.185,93.008 292.016,93.008 292.016,92.33 345.318,14.943 345.318,0 262.329,0 262.329,21.395 311.888,21.395     311.888,22.074 257.397,100.479 257.397,114.404 346.185,114.404   "/></g></g><g id="Layer_1_1_"/></svg>